<?xml version="1.0" encoding="UTF-8" standalone="no"?>
<!-- Created with Inkscape (http://www.inkscape.org/) -->

<svg
   xmlns:dc="http://purl.org/dc/elements/1.1/"
   xmlns:cc="http://creativecommons.org/ns#"
   xmlns:rdf="http://www.w3.org/1999/02/22-rdf-syntax-ns#"
   xmlns:svg="http://www.w3.org/2000/svg"
   xmlns="http://www.w3.org/2000/svg"
   xmlns:xlink="http://www.w3.org/1999/xlink"
   xmlns:sodipodi="http://sodipodi.sourceforge.net/DTD/sodipodi-0.dtd"
   xmlns:inkscape="http://www.inkscape.org/namespaces/inkscape"
   width="16"
   height="16"
   id="svg2"
   version="1.1"
   inkscape:version="0.91 r13725"
   sodipodi:docname="folder-images.svg">
  <defs
     id="defs4">
    <linearGradient
       id="linearGradient4075">
      <stop
         style="stop-color:#000000;stop-opacity:0.6825397;"
         offset="0"
         id="stop4077" />
      <stop
         style="stop-color:#787878;stop-opacity:0;"
         offset="1"
         id="stop4079" />
    </linearGradient>
    <linearGradient
       id="linearGradient5163">
      <stop
         style="stop-color:#9b7e35;stop-opacity:1;"
         offset="0"
         id="stop5165" />
      <stop
         id="stop5171"
         offset="0.76943779"
         style="stop-color:#e5d6b0;stop-opacity:1;" />
      <stop
         style="stop-color:#e6cd8a;stop-opacity:1;"
         offset="1"
         id="stop5167" />
    </linearGradient>
    <linearGradient
       id="linearGradient4393">
      <stop
         style="stop-color:#feeed2;stop-opacity:1;"
         offset="0"
         id="stop4395" />
      <stop
         style="stop-color:#feeed2;stop-opacity:0.11904762;"
         offset="1"
         id="stop4397" />
    </linearGradient>
    <linearGradient
       id="linearGradient3982">
      <stop
         style="stop-color:#fde6bc;stop-opacity:1;"
         offset="0"
         id="stop3984" />
      <stop
         id="stop3990"
         offset="0.51083106"
         style="stop-color:#f3d49a;stop-opacity:1;" />
      <stop
         style="stop-color:#bc9e6c;stop-opacity:1;"
         offset="1"
         id="stop3986" />
    </linearGradient>
    <linearGradient
       id="linearGradient3886">
      <stop
         style="stop-color:#f6ddaf;stop-opacity:1;"
         offset="0"
         id="stop3888" />
      <stop
         id="stop3972"
         offset="0.5"
         style="stop-color:#fcdda7;stop-opacity:1;" />
      <stop
         style="stop-color:#ba9e71;stop-opacity:1;"
         offset="1"
         id="stop3890" />
    </linearGradient>
    <linearGradient
       inkscape:collect="always"
       xlink:href="#linearGradient3982"
       id="linearGradient3988"
       x1="322.94888"
       y1="198.02513"
       x2="517.21027"
       y2="286.91855"
       gradientUnits="userSpaceOnUse"
       gradientTransform="matrix(0.03440336,0.00901453,0,0.03419101,-1.9926163,1031.8777)" />
    <linearGradient
       inkscape:collect="always"
       xlink:href="#linearGradient3876-2"
       id="linearGradient4014"
       x1="401.60123"
       y1="247.30942"
       x2="429.67322"
       y2="229.09518"
       gradientUnits="userSpaceOnUse"
       gradientTransform="matrix(0.03440336,0.00901453,0,0.03419101,-1.9926163,1031.8777)" />
    <linearGradient
       id="linearGradient3876-2">
      <stop
         style="stop-color:#ceb172;stop-opacity:1;"
         offset="0"
         id="stop3878-36" />
      <stop
         style="stop-color:#cea95c;stop-opacity:1;"
         offset="1"
         id="stop3880-6" />
    </linearGradient>
    <linearGradient
       inkscape:collect="always"
       xlink:href="#linearGradient4393"
       id="linearGradient4399"
       x1="323.00134"
       y1="217.01071"
       x2="351.78055"
       y2="222.06146"
       gradientUnits="userSpaceOnUse"
       gradientTransform="matrix(0.03440337,0.01248028,0,0.03419101,-1.9926164,1030.8827)" />
    <linearGradient
       inkscape:collect="always"
       xlink:href="#linearGradient3886"
       id="linearGradient5181"
       gradientUnits="userSpaceOnUse"
       gradientTransform="matrix(0.03440336,0.00346577,0,0.03419101,-1.8576571,1034.5996)"
       x1="142.92784"
       y1="83.013016"
       x2="429.56165"
       y2="399.19077" />
    <filter
       inkscape:collect="always"
       id="filter3834"
       x="-0.34263548"
       width="1.685271"
       y="-0.063944638"
       height="1.1278893"
       color-interpolation-filters="sRGB">
      <feGaussianBlur
         inkscape:collect="always"
         stdDeviation="10.164553"
         id="feGaussianBlur3836" />
    </filter>
    <filter
       inkscape:collect="always"
       id="filter4071"
       x="-0.060892355"
       width="1.1217847"
       y="-0.32908928"
       height="1.6581786"
       color-interpolation-filters="sRGB">
      <feGaussianBlur
         inkscape:collect="always"
         stdDeviation="2.8724519"
         id="feGaussianBlur4073" />
    </filter>
    <linearGradient
       inkscape:collect="always"
       xlink:href="#linearGradient4075"
       id="linearGradient4081"
       x1="60.844788"
       y1="120.31346"
       x2="60.844788"
       y2="132.19897"
       gradientUnits="userSpaceOnUse" />
    <linearGradient
       id="linearGradient4393-5">
      <stop
         style="stop-color:#feeed2;stop-opacity:1;"
         offset="0"
         id="stop4395-3" />
      <stop
         style="stop-color:#feeed2;stop-opacity:0.11904762;"
         offset="1"
         id="stop4397-8" />
    </linearGradient>
    <linearGradient
       y2="222.06146"
       x2="351.78055"
       y1="217.01071"
       x1="323.00134"
       gradientTransform="matrix(0.10849925,0.01093009,0,0.03419101,-31.900446,1031.365)"
       gradientUnits="userSpaceOnUse"
       id="linearGradient3946"
       xlink:href="#linearGradient4393-5"
       inkscape:collect="always" />
    <linearGradient
       inkscape:collect="always"
       xlink:href="#linearGradient5163"
       id="linearGradient3838"
       x1="148.36954"
       y1="737.48053"
       x2="389.06802"
       y2="777.73242"
       gradientUnits="userSpaceOnUse"
       gradientTransform="matrix(0.03124173,0.00314726,0,0.03123814,0.0623413,1018.7001)" />
    <linearGradient
       inkscape:collect="always"
       xlink:href="#linearGradient25793-8"
       id="linearGradient3419"
       gradientUnits="userSpaceOnUse"
       gradientTransform="matrix(0.08535505,0,0,0.12913177,-28.563477,-19.600759)"
       x1="697.91443"
       y1="327.78354"
       x2="700.41443"
       y2="496.33771" />
    <linearGradient
       id="linearGradient25793-8">
      <stop
         id="stop25795-4"
         style="stop-color:#f0f0f4;stop-opacity:1"
         offset="0" />
      <stop
         id="stop25819-8"
         style="stop-color:#eeeeec;stop-opacity:1"
         offset="0.03744119" />
      <stop
         id="stop25817-8"
         style="stop-color:#eeeeec;stop-opacity:1;"
         offset="0.39254159" />
      <stop
         id="stop25803-3"
         style="stop-color:#a1a29f;stop-opacity:1"
         offset="0.90799886" />
      <stop
         id="stop25799-8"
         style="stop-color:#555753;stop-opacity:1"
         offset="1" />
    </linearGradient>
    <radialGradient
       inkscape:collect="always"
       xlink:href="#linearGradient26830-4"
       id="radialGradient3423"
       gradientUnits="userSpaceOnUse"
       gradientTransform="matrix(0.58470182,-0.05779874,0.07568965,0.27162535,-212.45719,17.088878)"
       cx="399.8783"
       cy="127.24747"
       fx="399.8783"
       fy="127.24747"
       r="2.0221689" />
    <linearGradient
       id="linearGradient26830-4">
      <stop
         id="stop26832-5"
         style="stop-color:#ffffff;stop-opacity:1"
         offset="0" />
      <stop
         id="stop26834-0"
         style="stop-color:#ffffff;stop-opacity:0"
         offset="1" />
    </linearGradient>
    <radialGradient
       inkscape:collect="always"
       xlink:href="#linearGradient18403-5"
       id="radialGradient3425"
       gradientUnits="userSpaceOnUse"
       gradientTransform="matrix(-0.27824034,0.06346928,-0.05071624,-0.22233101,156.25519,9.1449675)"
       cx="427.79684"
       cy="33.604549"
       fx="427.79684"
       fy="33.604549"
       r="74.907745" />
    <linearGradient
       id="linearGradient18403-5">
      <stop
         id="stop18405-7"
         style="stop-color:#eeeeec;stop-opacity:1"
         offset="0" />
      <stop
         id="stop18407-3"
         style="stop-color:#eeeeec;stop-opacity:0"
         offset="1" />
    </linearGradient>
    <linearGradient
       id="linearGradient26099-1">
      <stop
         id="stop26101-6"
         style="stop-color:#eeeeec;stop-opacity:1"
         offset="0" />
      <stop
         id="stop26103-2"
         style="stop-color:#babdb6;stop-opacity:1"
         offset="1" />
    </linearGradient>
    <linearGradient
       inkscape:collect="always"
       xlink:href="#linearGradient9688"
       id="linearGradient3449"
       gradientUnits="userSpaceOnUse"
       gradientTransform="matrix(0.18385095,0,0,0.1770254,-13.573114,2.7189089)"
       x1="236.75015"
       y1="171.61981"
       x2="222.73204"
       y2="179.03932" />
    <linearGradient
       id="linearGradient9688">
      <stop
         id="stop9690"
         style="stop-color:#eeeeec;stop-opacity:1"
         offset="0" />
      <stop
         id="stop9692"
         style="stop-color:#ffffff;stop-opacity:0"
         offset="1" />
    </linearGradient>
    <linearGradient
       id="linearGradient9785-9">
      <stop
         id="stop9787-7"
         style="stop-color:#eeeeec;stop-opacity:1"
         offset="0" />
      <stop
         id="stop9789-4"
         style="stop-color:#090908;stop-opacity:0.96621621"
         offset="1" />
    </linearGradient>
    <radialGradient
       inkscape:collect="always"
       xlink:href="#linearGradient10695"
       id="radialGradient3473"
       gradientUnits="userSpaceOnUse"
       gradientTransform="matrix(-0.22556036,0,0,-0.22556036,71.868278,78.128183)"
       cx="171.25"
       cy="188.5"
       fx="171.25"
       fy="188.5"
       r="19" />
    <linearGradient
       id="linearGradient10695">
      <stop
         id="stop10697"
         style="stop-color:#b100cb;stop-opacity:1"
         offset="0" />
      <stop
         id="stop10699"
         style="stop-color:#204a87;stop-opacity:0"
         offset="1" />
    </linearGradient>
    <radialGradient
       inkscape:collect="always"
       xlink:href="#linearGradient9785-9"
       id="radialGradient6333"
       gradientUnits="userSpaceOnUse"
       gradientTransform="matrix(0.0416058,-0.16827609,0.25851628,0.06547612,-19.793381,66.656232)"
       cx="251.69016"
       cy="171.7894"
       fx="251.69016"
       fy="171.7894"
       r="21.53125" />
    <linearGradient
       id="linearGradient26128-1">
      <stop
         id="stop26130-4"
         style="stop-color:#eeeeec;stop-opacity:0.9527027"
         offset="0" />
      <stop
         id="stop26146-5"
         style="stop-color:#eeeeec;stop-opacity:0"
         offset="0.47988781" />
      <stop
         id="stop26148-3"
         style="stop-color:#eeeeec;stop-opacity:0.99324322"
         offset="0.5229584" />
      <stop
         id="stop26132-2"
         style="stop-color:#eeeeec;stop-opacity:0"
         offset="0.63153976" />
      <stop
         id="stop26134-9"
         style="stop-color:#eeeeec;stop-opacity:0.23529412"
         offset="0.7383545" />
      <stop
         id="stop26136-6"
         style="stop-color:#ffffff;stop-opacity:0.71621621"
         offset="0.83400774" />
      <stop
         id="stop26142-0"
         style="stop-color:#f6f6f5;stop-opacity:0.27027026"
         offset="0.90514386" />
      <stop
         id="stop26144-7"
         style="stop-color:#f2f2f0;stop-opacity:0.27702704"
         offset="0.90514386" />
      <stop
         id="stop26138-7"
         style="stop-color:#eeeeec;stop-opacity:0"
         offset="1" />
    </linearGradient>
    <radialGradient
       inkscape:collect="always"
       xlink:href="#linearGradient26128-1"
       id="radialGradient6537"
       gradientUnits="userSpaceOnUse"
       gradientTransform="matrix(0.13316955,-2.2654848e-8,1.1480844e-8,0.12147125,-30.13903,12.050406)"
       cx="459.45273"
       cy="170.414"
       fx="459.45273"
       fy="170.414"
       r="74.907745" />
    <radialGradient
       inkscape:collect="always"
       xlink:href="#linearGradient26099-1"
       id="radialGradient6539"
       gradientUnits="userSpaceOnUse"
       gradientTransform="matrix(-0.08065604,0.02898665,-0.01335,-0.04318357,71.50106,22.539116)"
       cx="502.53064"
       cy="217.46133"
       fx="502.53064"
       fy="217.46133"
       r="74.907745" />
  </defs>
  <sodipodi:namedview
     id="base"
     pagecolor="#ffffff"
     bordercolor="#27cc00"
     borderopacity="1"
     inkscape:pageopacity="0.0"
     inkscape:pageshadow="2"
     inkscape:zoom="23.781069"
     inkscape:cx="3.3288034"
     inkscape:cy="3.4165437"
     inkscape:document-units="px"
     inkscape:current-layer="g6549"
     showgrid="false"
     borderlayer="false"
     inkscape:showpageshadow="false"
     showborder="true"
     inkscape:snap-from-guide="false"
     objecttolerance="1"
     gridtolerance="1"
     guidetolerance="5"
     inkscape:window-width="1088"
     inkscape:window-height="714"
     inkscape:window-x="183"
     inkscape:window-y="134"
     inkscape:window-maximized="0">
    <inkscape:grid
       type="xygrid"
       id="grid2985"
       empspacing="5"
       visible="true"
       enabled="true"
       snapvisiblegridlinesonly="true" />
  </sodipodi:namedview>
  <metadata
     id="metadata7">
    <rdf:RDF>
      <cc:Work
         rdf:about="">
        <dc:format>image/svg+xml</dc:format>
        <dc:type
           rdf:resource="http://purl.org/dc/dcmitype/StillImage" />
        <dc:title />
      </cc:Work>
    </rdf:RDF>
  </metadata>
  <g
     inkscape:label="Layer 1"
     inkscape:groupmode="layer"
     id="layer1"
     transform="translate(0,-1036.3622)">
    <path
       sodipodi:type="arc"
       style="opacity:0.3;fill:url(#linearGradient4081);fill-opacity:1;stroke:none;filter:url(#filter4071)"
       id="path3081"
       sodipodi:cx="61.964287"
       sodipodi:cy="115.14286"
       sodipodi:rx="56.607143"
       sodipodi:ry="10"
       d="m 118.57143,115.14286 c 0,5.52285 -25.343881,10 -56.607143,10 -31.263262,0 -56.6071436,-4.47715 -56.6071436,-10 0,-5.52285 25.3438816,-10 56.6071436,-10 31.263262,0 56.607143,4.47715 56.607143,10 z"
       transform="matrix(0.104192,-0.00555678,0,0.10529274,1.1611369,1038.7576)" />
    <path
       style="fill:url(#linearGradient5181);fill-opacity:1;stroke:url(#linearGradient3838);stroke-width:0.2;stroke-linecap:butt;stroke-linejoin:round;stroke-miterlimit:4;stroke-opacity:1;stroke-dasharray:none;marker-start:none"
       d="m 13.00997,1037.5697 -9.7806001,-0.069 0.037059,7.9305 -0.9138878,0.2402 0.061436,5.1176 0.5651977,0.056 0.2580256,0.4656 9.9447916,-1.1364 z"
       inkscape:connector-curvature="0"
       sodipodi:nodetypes="ccccccccc"
       id="path3106" />
    <path
       style="fill:#fdfbf7;fill-opacity:1;stroke:none"
       d="m 3.5253061,1047.1897 c 0.039943,-0.123 0.2056544,-0.166 0.3625185,-0.1888 0.1467672,-0.022 0.3319983,-0.025 0.332675,0.047 0,0.1393 0.1402106,2.4387 0.1402106,2.4387 -0.00115,0.103 -0.2421391,0.214 -0.4129525,0.227 -0.2469621,0.02 -0.3376222,-0.022 -0.3376222,-0.1266 z"
       id="path4403"
       inkscape:connector-curvature="0"
       sodipodi:nodetypes="csccscc" />
    <path
       style="opacity:0.78636367;fill:url(#linearGradient3946);fill-opacity:1;stroke:none"
       d="m 3.3353586,1037.5851 5.6370034,0.1058 c 0,0 -0.5357005,3.2331 -1.1789031,4.7228 -0.3724357,0.8626 -0.8761139,1.6901 -1.5223774,2.3721 -0.7868547,0.8303 -2.7844204,2.006 -2.7844204,2.006 z"
       id="path4391-1"
       inkscape:connector-curvature="0"
       sodipodi:nodetypes="ccaacc" />
    <path
       style="fill:#6699cc;fill-opacity:1;stroke:none"
       d="m 3.7503563,1048.4192 c 0.021493,-0.055 0.141992,-0.07 0.2264008,-0.078 0.078976,-0.01 0.1786489,-0.01 0.179013,0.023 0,0.061 0.045275,1.0996 0.045275,1.0996 -6.103e-4,0.047 -0.1302955,0.093 -0.2222107,0.097 -0.1328908,0.01 -0.1816748,-0.014 -0.1816748,-0.061 z"
       id="path4403-6"
       inkscape:connector-curvature="0"
       sodipodi:nodetypes="csccscc" />
    <g
       transform="matrix(-0.43107909,0,0,0.43107909,19.243749,1032.55)"
       id="layer1-6">
      <path
         inkscape:connector-curvature="0"
         d="m 39.868747,32.750795 a 8.8226696,9.7421881 0 0 1 -17.645339,0 8.8226696,9.7421881 0 1 1 17.645339,0 z"
         id="path5469"
         style="fill:url(#radialGradient6537);fill-opacity:1;fill-rule:nonzero;stroke:none" />
      <path
         inkscape:connector-curvature="0"
         d="M 23.95173,31.016794 A 7.3817547,7.3817541 0 0 1 38.212185,34.837871 7.3817547,7.3817541 0 1 1 23.95173,31.016794 z"
         id="path5467"
         style="fill:url(#radialGradient6539);fill-opacity:1;fill-rule:nonzero;stroke:none" />
      <path
         inkscape:connector-curvature="0"
         d="m 32.543376,28.148574 a 1.6784585,1.1230937 0 0 1 -3.356917,0 1.6784585,1.1230937 0 1 1 3.356917,0 z"
         id="path5453"
         style="fill:url(#radialGradient3423);fill-opacity:1;fill-rule:nonzero;stroke:none" />
      <path
         inkscape:connector-curvature="0"
         d="m 37.367843,33.324894 a 6.2070228,6.2070249 0 0 1 -12.414045,0 6.2070228,6.2070249 0 1 1 12.414045,0 z"
         id="path5463"
         style="fill:url(#radialGradient3425);fill-opacity:1;fill-rule:nonzero;stroke:none" />
      <g
         id="g6549">
        <rect
           ry="2.0291593"
           rx="2.2097313"
           transform="scale(-1,1)"
           y="22.425673"
           x="-44.281231"
           height="20.854467"
           width="22.710276"
           id="rect6543"
           style="fill:none;stroke:#000000;stroke-width:0.71929991;stroke-linecap:square;stroke-linejoin:miter;stroke-miterlimit:4;stroke-opacity:1;stroke-dasharray:none;stroke-dashoffset:0" />
        <rect
           style="fill:url(#linearGradient3419);fill-opacity:1;fill-rule:nonzero;stroke:none"
           id="rect5445"
           y="22.726496"
           x="21.764149"
           ry="1.3960098"
           rx="0.91906148"
           height="20.21611"
           width="22.182098" />
      </g>
      <path
         inkscape:connector-curvature="0"
         d="m 36.747143,33.324894 a 5.5863232,5.5863239 0 0 1 -11.172646,0 5.5863232,5.5863239 0 1 1 11.172646,0 z"
         id="path5465"
         style="fill:#888a85;fill-opacity:1;fill-rule:nonzero;stroke:none" />
      <path
         inkscape:connector-curvature="0"
         d="m 35.796209,33.416829 a 4.3612302,4.3612295 0 0 1 -8.72246,0 4.3612302,4.3612295 0 1 1 8.72246,0 z"
         id="path5485"
         style="fill:#2e3436;fill-opacity:1;fill-rule:nonzero;stroke:none" />
      <path
         inkscape:connector-curvature="0"
         d="m 29.749186,30.808858 c -0.112514,0.03515 -0.220359,0.07618 -0.327484,0.121707 0.106992,-0.04583 0.215073,-0.08632 0.327484,-0.121707 z m 2.344098,0.06638 c 0.04636,0.0175 0.09254,0.03599 0.137888,0.05531 -0.04552,-0.01936 -0.09135,-0.03782 -0.137888,-0.05531 z m -3.05652,0.248943 c -0.07498,0.04328 -0.147193,0.08988 -0.218324,0.138301 0.07061,-0.04843 0.143943,-0.09491 0.218324,-0.138301 z m -0.218324,0.138301 c -0.08556,0.05825 -0.167503,0.117321 -0.247048,0.182559 0.07852,-0.06462 0.162719,-0.124712 0.247048,-0.182559 z m 4.337731,0.24894 c 0.04915,0.04291 0.09713,0.08726 0.143635,0.13277 -0.04649,-0.04533 -0.0945,-0.09004 -0.143635,-0.13277 z m -4.67096,0.01113 c -0.06305,0.05536 -0.125228,0.111853 -0.18385,0.171492 0.05876,-0.05978 0.120697,-0.115918 0.18385,-0.171492 z m -0.18385,0.171492 c -0.446789,0.454475 -0.763119,1.026542 -0.884784,1.665145 -3.4e-4,0.0019 3.4e-4,0.0037 0,0.0055 l 0,1.178323 c 0.184314,0.976688 0.81773,1.80199 1.689129,2.2792 l 3.441459,0 c 0.834911,-0.457227 1.448087,-1.233965 1.660403,-2.157493 l 0,-0.01113 0,-1.399608 C 34.113088,32.8365 33.938784,32.445928 33.696234,32.103317 33.507556,31.860295 33.289274,31.68412 33.052757,31.588839 l -4.619255,0 c -0.0465,0.03462 -0.08934,0.06936 -0.13214,0.105112 z m -0.884784,2.848999 c -0.01791,-0.09481 -0.03064,-0.189673 -0.04022,-0.287665 0.0093,0.09767 0.02229,0.19262 0.04022,0.287665 z m 0,-1.178323 c -0.01798,0.09524 -0.03099,0.189784 -0.04022,0.287667 0.0095,-0.09663 0.02232,-0.192912 0.04022,-0.287667 z m 6.03835,-1.565568 c 0.03366,0.03746 0.06577,0.07728 0.09767,0.116169 -0.03236,-0.03939 -0.06351,-0.07824 -0.09767,-0.116169 z m -3.745959,5.283097 c 0.06996,0.0228 0.140682,0.04229 0.212579,0.06085 -0.07195,-0.01863 -0.142568,-0.03795 -0.212579,-0.06085 z m 2.234935,0 c -0.07035,0.02291 -0.140276,0.04222 -0.212577,0.06085 0.07189,-0.01857 0.142613,-0.03806 0.212577,-0.06085 z"
         id="path5487"
         style="opacity:0.23267326;fill:url(#linearGradient3449);fill-opacity:1;fill-rule:nonzero;stroke:none" />
      <path
         inkscape:connector-curvature="0"
         d="m 29.186591,30.313057 c -0.548018,0.393842 -0.987985,0.924914 -1.263634,1.536847 l 0,3.015793 c 0.288627,0.641174 0.756771,1.190281 1.341638,1.589477 l 4.534529,0 c 0.552025,-0.377265 0.998869,-0.888409 1.289636,-1.484211 l 0,-3.221059 c -0.277839,-0.569672 -0.698125,-1.064892 -1.216834,-1.436847 l -4.685335,0 z"
         id="path5489"
         style="opacity:0.37556559;fill:url(#radialGradient6333);fill-opacity:1;fill-rule:nonzero;stroke:none" />
      <path
         inkscape:connector-curvature="0"
         d="m 31.478982,30.33019 c -1.582843,-4e-6 -2.88217,1.187998 -3.05104,2.710026 -0.0071,0.06414 -0.01229,0.128293 -0.01522,0.193577 -0.0021,0.04673 -0.0076,0.09213 -0.0076,0.139373 0,0.01032 -1.04e-4,0.02071 0,0.03097 -1.04e-4,0.01033 0,0.02069 0,0.03098 8.86e-4,0.04613 0.0047,0.09379 0.0076,0.139372 0.0032,0.06529 0.0082,0.129428 0.01522,0.193576 0.168864,1.522029 1.468197,2.710028 3.05104,2.710028 1.582842,0 2.882171,-1.187999 3.051037,-2.710028 0.0071,-0.06414 0.01229,-0.128291 0.01522,-0.193576 0.0036,-0.0557 0.0071,-0.113842 0.0076,-0.170343 -5.69e-4,-0.05648 -0.004,-0.114659 -0.0076,-0.170341 -0.0032,-0.06527 -0.0082,-0.12943 -0.01522,-0.193576 C 34.361153,31.518196 33.061823,30.3302 31.478982,30.3302 z"
         id="path5495"
         style="fill:#000000;fill-opacity:0.50543482;fill-rule:nonzero;stroke:none" />
      <path
         inkscape:connector-curvature="0"
         d="m 28.108338,33.378438 c 0,-1.873388 1.518681,-3.392068 3.392067,-3.392068 1.873386,0 3.392068,1.51868 3.392068,3.392068 0,1.873387 -1.518682,3.392067 -3.392068,3.392067 -1.873386,0 -3.392067,-1.51868 -3.392067,-3.392067 z"
         id="path10013"
         style="opacity:0.8;fill:url(#radialGradient3473);fill-opacity:1;fill-rule:evenodd;stroke:none;stroke-width:0.94462639;marker:none;visibility:visible;display:inline;overflow:visible;enable-background:accumulate" />
    </g>
    <path
       style="opacity:0.2;fill:#000000;fill-opacity:1;stroke:none;filter:url(#filter3834)"
       d="m 334.55608,1012.7431 -44.16221,10.5476 0,-111.31401 -21.1979,-24.24366 3.07243,-228.71047 68.12547,-16.88613 z"
       id="path4069"
       inkscape:connector-curvature="0"
       sodipodi:nodetypes="ccccccc"
       transform="matrix(0.04751185,0.00901453,0,0.03491785,-6.6093066,1012.5236)" />
    <path
       style="fill:url(#linearGradient3988);fill-opacity:1;stroke:url(#linearGradient4014);stroke-width:0.2;stroke-linecap:butt;stroke-linejoin:miter;stroke-miterlimit:4;stroke-opacity:1;stroke-dasharray:none"
       d="m 12.973417,1037.5413 -4.8259756,-0.054 0,7.8526 0.6880676,0.7664 -0.068278,4.727 0.2041306,0.3184 0.4832714,0.1266 3.701083,-1.1256 z"
       id="path3884"
       inkscape:connector-curvature="0"
       sodipodi:nodetypes="ccccccccc" />
    <path
       style="opacity:0.78636367;fill:url(#linearGradient4399);fill-opacity:1;stroke:none"
       d="m 8.2468632,1037.5741 4.6011448,0.1591 0.23863,12.3635 -3.622288,1.0572 -0.452236,-0.1343 -0.1264301,-0.2162 0.024197,-4.4972 -0.7235001,-0.8614 z"
       id="path4391"
       inkscape:connector-curvature="0"
       sodipodi:nodetypes="ccccccccc" />
    <rect
       style="fill:#646464;fill-opacity:1;stroke:none"
       id="rect4130"
       width="2.819989"
       height="1.3394243"
       x="1.2514474"
       y="1042.7383"
       rx="0.41854686"
       ry="0.37486103" />
  </g>
</svg>
